<?xml version="1.0" encoding="UTF-8" standalone="no"?><!DOCTYPE svg PUBLIC "-//W3C//DTD SVG 1.1//EN" "http://www.w3.org/Graphics/SVG/1.1/DTD/svg11.dtd"><svg width="100%" height="100%" viewBox="0 0 5000 1667" version="1.1" xmlns="http://www.w3.org/2000/svg" xmlns:xlink="http://www.w3.org/1999/xlink" xml:space="preserve" xmlns:serif="http://www.serif.com/" style="fill-rule:evenodd;clip-rule:evenodd;stroke-linejoin:round;stroke-miterlimit:2;"><g transform="matrix(4.166667,0,0,4.166667,0,0)"><path d="M980.693,299.3814C976.9823,300.3339 973.0928,300.8403 969.0848,300.8403L139.0912,300.8403C113.3847,300.8403 92.5495,280.0052 92.5495,254.2986L92.5495,145.7014C92.5495,119.9948 113.3847,99.1597 139.0912,99.1597L1060.9088,99.1597C1086.6153,99.1597 1107.4505,119.8441 1107.4505,145.3647L1107.4505,253.1764C1107.4505,278.6969 1086.6153,299.3814 1060.9088,299.3814L980.693,299.3814Z" style="fill:white;"/><g transform="matrix(1,0,0,1,-45.912012,-200)"><path d="M1026.605,499.3814C1022.8944,500.3339 1019.0048,500.8403 1014.9968,500.8403L185.0032,500.8403C159.2967,500.8403 138.4615,480.0052 138.4615,454.2986L138.4615,345.7014C138.4615,319.9948 159.2967,299.1597 185.0032,299.1597L1106.8208,299.1597C1132.5273,299.1597 1153.3625,319.8441 1153.3625,345.3647L1153.3625,453.1764C1153.3625,478.6969 1132.5273,499.3814 1106.8208,499.3814L1026.605,499.3814ZM844.1064,408.3094C844.989,406.1634 845.4792,403.8103 845.4792,401.3452C845.4792,398.8802 844.989,396.5271 844.1064,394.3811C842.2512,389.8781 838.6552,386.277 834.1523,384.4231C832.0063,383.5405 829.6532,383.0503 827.1881,383.0503L784.0729,383.0503C783.6766,383.0503 783.2919,383.0889 782.9188,383.1674C782.3978,383.2755 781.9037,383.4582 781.4444,383.7L781.317,383.7695C781.2231,383.8197 781.1331,383.875 781.0482,383.9329C780.0832,384.5479 779.3177,385.4536 778.8752,386.5228C778.843,386.5961 778.816,386.6668 778.789,386.7402C778.5677,387.3436 778.4467,387.992 778.4467,388.6726C778.4467,389.3339 778.5638,389.972 778.7735,390.5587L778.7542,390.5548C778.7928,390.6295 778.8275,390.7066 778.8584,390.7838C779.1235,391.3834 779.3756,391.9894 779.6175,392.6005C779.8465,393.1871 780.0717,393.7828 780.2826,394.3811C781.8613,398.7978 782.9111,403.4681 783.3575,408.3094C783.5209,410.063 783.6033,411.8436 783.6033,413.6409C783.6033,415.6582 783.4978,417.6537 783.2958,419.617C782.7477,424.8816 781.4882,429.9404 779.6175,434.6839C778.3258,437.9428 776.7472,441.0537 774.9164,443.9857L788.141,443.9857C791.8115,436.5237 794.1672,428.3 794.9147,419.617L815.8612,419.617C825.9633,419.617 834.1523,427.8059 834.1523,437.908L834.1523,443.9857L845.4792,443.9857L845.4792,437.908C845.4792,431.0018 843.1145,424.6526 839.157,419.617C838.4134,418.6726 837.617,417.7733 836.7653,416.9306C840.0396,414.9159 842.6294,411.8989 844.1064,408.3094ZM827.1881,408.3094L816.9111,408.3094C816.5611,408.2978 816.2112,408.2901 815.8612,408.2901C815.5113,408.2901 815.1613,408.2978 814.8114,408.3094L794.9649,408.3094C794.5995,403.5118 793.7401,398.8532 792.4407,394.3811L827.1881,394.3811C831.0337,394.3811 834.1523,397.4958 834.1523,401.3452C834.1523,405.1908 831.0337,408.3094 827.1881,408.3094ZM455.0071,382.5081C443.3329,382.5081 434.8468,391.2424 434.8468,403.5682C434.8468,416.2973 443.4958,425.2799 455.8216,425.2799C460.3982,425.2799 465.0524,424.2172 469.6988,422.0995L469.6988,413.3575C465.4557,415.8087 461.298,417.1972 457.5359,417.1972C450.6865,417.1972 445.7841,412.9541 445.1325,406.7485L472.8016,406.7485C472.9644,405.3601 472.9644,404.0569 472.9644,402.9089C472.9644,390.9166 465.7039,382.5081 455.0071,382.5081ZM517.8694,365.6057L507.3355,365.6057L507.3355,386.2624C504.1551,383.8112 500.5637,382.5081 496.9722,382.5081C486.1125,382.5081 478.5262,391.32 478.5262,403.894C478.5262,416.4602 486.1125,425.2799 496.9722,425.2799C500.5637,425.2799 504.1551,423.9767 507.3355,421.4402L507.3355,424.3025L517.8694,424.3025L517.8694,365.6057ZM431.0847,382.9114C429.9444,382.5856 428.8041,382.5081 427.6561,382.5081C424.15,382.5081 420.5585,384.2999 417.6186,387.5656L417.6186,383.4855L407.17,383.4855L407.17,424.3025L417.6186,424.3025L417.6186,397.0368C420.3103,393.6083 423.9871,391.7311 427.4156,391.7311C428.6412,391.7311 429.9444,391.894 431.0847,392.2198L431.0847,382.9114ZM224.7809,368.1345L204.9463,368.1345L204.9463,424.3025L215.395,424.3025L215.395,404.1345L224.7809,404.1345C236.2146,404.1345 244.3749,396.7886 244.3749,386.1771C244.3749,375.5656 236.2146,368.1345 224.7809,368.1345ZM621.797,383.4855L611.9224,410.2624L602.1254,383.4855L591.4286,383.4855L607.02,422.8287L599.1855,442.1745L609.3083,442.1745L632.4939,383.4855L621.797,383.4855ZM773.4854,402.5294C771.8527,395.627 768.7457,389.2932 764.5116,383.8845C760.8282,379.1757 756.2943,375.1629 751.1429,372.0829C750.8547,369.7272 750.353,367.4397 749.6647,365.2358C749.6261,365.1149 749.5913,364.9978 749.5489,364.882C744.7539,350.0248 731.3273,339.0517 715.1745,337.8616C715.1436,337.8616 715.1089,337.8578 715.0742,337.8578C714.9841,337.8501 714.8953,337.8423 714.8053,337.8385C713.9651,337.7832 713.1173,337.7561 712.263,337.7561C710.9134,337.7561 709.5793,337.8269 708.2657,337.9581C704.7932,338.3081 701.4572,339.1135 698.3103,340.3151C696.9066,340.8477 695.5429,341.4614 694.2203,342.1497C694.1392,342.1935 694.053,342.2359 693.972,342.2823C693.7687,342.3878 693.5667,342.4958 693.3647,342.6091C693.0933,342.757 692.8205,342.9127 692.5516,343.0684C690.919,344.0204 689.3597,345.0895 687.8865,346.2642C687.8827,346.2642 687.8788,346.268 687.875,346.2719C687.8634,346.2796 687.8518,346.2912 687.8441,346.2989L687.8132,346.3221L687.8093,346.3259C687.4002,346.5781 687.0323,346.8856 686.7132,347.2317C686.7003,347.2394 686.6926,347.2432 686.69,347.251C686.6695,347.2703 686.6502,347.2934 686.6309,347.3127C686.627,347.3127 686.627,347.3166 686.627,347.3166C685.7251,348.324 685.177,349.6504 685.177,351.1004C685.177,354.2228 687.7116,356.7548 690.8341,356.7548C692.055,356.7548 693.191,356.365 694.1161,355.705L694.1277,355.6934C694.3412,355.5454 694.5432,355.3743 694.7349,355.1916C694.7375,355.1916 694.7426,355.1878 694.7465,355.1826L694.7542,355.1762C696.4924,353.7764 698.3965,352.5786 700.4421,351.6266C700.5193,351.588 700.5978,351.5519 700.675,351.5172C700.8306,351.4439 700.9863,351.3731 701.1458,351.3114L701.1458,351.3075L701.1497,351.3075C701.5344,351.1364 701.9229,350.9768 702.3153,350.8289C705.4031,349.6504 708.7584,349.0058 712.263,349.0058C713.1173,349.0058 713.9651,349.0444 714.8053,349.1216C714.8953,349.1255 714.9841,349.1371 715.0742,349.1461C716.3298,349.2696 717.5624,349.4793 718.764,349.7675C726.778,351.6767 733.4501,357.043 737.1207,364.2014C737.2995,364.5398 737.4668,364.8859 737.6263,365.2358C737.8553,365.726 738.0663,366.2239 738.2644,366.7282C734.4343,365.753 730.4177,365.2358 726.284,365.2358C720.2024,365.2358 714.3781,366.3551 709.0119,368.4008C706.3526,369.4159 703.8013,370.66 701.3864,372.1061C701.3787,372.1099 701.3749,372.1099 701.3671,372.1176C700.6132,372.5692 699.8696,373.044 699.1427,373.5341C698.6808,373.8481 698.2215,374.171 697.7699,374.5016L697.7352,374.5248C694.0685,377.4877 691.3152,381.5327 689.9669,386.1746C689.3828,388.1688 689.0599,390.2736 689.0367,392.4505C689.0329,392.5444 689.0329,392.637 689.0329,392.7309C689.0329,393.05 689.0406,393.3678 689.056,393.6868C689.056,393.7692 689.0599,393.8502 689.0637,393.9364C689.0676,394.0445 689.0753,394.1539 689.0843,394.2632C689.0843,394.2709 689.0843,394.2787 689.0882,394.2902C689.2619,397.0036 689.9039,399.5896 690.9305,401.9736C691.0129,402.1601 691.0939,402.3467 691.1801,402.5294C691.2033,402.5834 691.2303,402.6387 691.2573,402.6928C693.2798,406.9822 696.5644,410.5588 700.6364,412.9351C700.6518,412.9428 700.6634,412.9505 700.675,412.9583C700.8306,413.0509 700.9902,413.1371 701.1458,413.222C701.7094,413.5333 702.2845,413.8215 702.8763,414.0853C705.2358,415.1428 707.8025,415.8196 710.5017,416.0383L710.5043,416.0383C710.9752,416.0769 711.4461,416.1 711.9247,416.1116C712.0881,416.1155 712.2502,416.1155 712.4174,416.1155C712.6323,416.1155 712.8458,416.1116 713.0555,416.1078C713.2035,416.1039 713.3476,416.1 713.4956,416.0923C713.9343,416.073 714.3704,416.037 714.8053,415.9945C714.8953,415.9868 714.9841,415.9752 715.0742,415.9637L715.0742,416.0138C716.5859,415.9096 718.0719,415.7154 719.5295,415.4387C719.8486,415.3847 720.1638,415.3178 720.479,415.2483L720.4829,415.2483C722.4384,414.8366 724.3361,414.2718 726.1708,413.5719C726.1875,413.5681 726.1991,413.5642 726.2145,413.5565C728.3952,412.7292 730.4833,411.7064 732.4556,410.5164C735.9589,408.4051 739.1084,405.7612 741.7832,402.6966C741.8334,402.6426 741.881,402.5873 741.9273,402.5294C742.9231,401.3779 743.8481,400.1685 744.7037,398.909C747.4325,394.8923 749.4318,390.3392 750.5125,385.4438C752.7601,387.3685 754.7787,389.5583 756.5092,391.9641C758.8108,395.1458 760.6146,398.7031 761.8201,402.5294C762.4582,404.5441 762.924,406.6361 763.2083,408.7821C763.4257,410.4031 763.5389,412.0602 763.5389,413.7392C763.5389,434.3165 746.8574,450.9942 726.284,450.9942C724.5999,450.9942 722.9441,450.8822 721.323,450.6635C719.1757,450.3805 717.0876,449.9135 715.0742,449.2753C714.9841,449.2483 714.8953,449.2213 714.8053,449.1904C714.5685,449.1158 714.3305,449.0347 714.0938,448.9524C705.2049,445.8788 697.842,439.5283 693.4483,431.3471L693.4432,431.3381L693.3621,431.1785C692.4024,429.4443 690.551,428.2696 688.4269,428.2696C687.3578,428.2696 686.3542,428.5694 685.5038,429.0866C685.4768,429.102 685.4524,429.1175 685.4292,429.1368C685.0522,429.3658 684.7062,429.6462 684.4,429.9653C684.3922,429.9692 684.3871,429.9769 684.3832,429.9807C683.3952,430.9958 682.7853,432.384 682.7853,433.9086C682.7853,434.6625 682.9371,435.3856 683.2086,436.0469C683.2086,436.0546 683.2137,436.0623 683.2163,436.0662C683.3566,436.4084 683.5315,436.7313 683.7297,437.035L683.749,437.0633C689.0071,446.6366 697.402,454.2414 707.5542,458.4948C709.8829,459.4713 712.3055,460.2716 714.8053,460.8788C714.8953,460.8981 714.9841,460.9213 715.0742,460.9406C718.6701,461.7923 722.4269,462.2439 726.284,462.2439C729.8773,462.2439 733.3807,461.8515 736.7553,461.1117L736.7592,461.1117C755.1364,457.0642 769.6089,442.5955 773.6565,424.2144L773.6565,424.2105C774.395,420.8397 774.7886,417.3364 774.7886,413.7392C774.7886,409.8821 774.3371,406.1266 773.4854,402.5294ZM735.7917,391.9873L735.7917,391.9912C732.8557,396.5687 728.6242,400.2316 723.6169,402.4599C723.5616,402.4869 723.5076,402.5101 723.4535,402.5294C723.0444,402.7121 722.6289,402.8832 722.2094,403.0427C721.3693,403.3656 720.5099,403.6448 719.6312,403.8828C718.1568,404.2868 716.6335,404.5712 715.0742,404.7268C714.9841,404.7345 714.8953,404.7461 714.8053,404.75C714.3035,404.7963 713.8018,404.8272 713.2936,404.8465C713.2575,404.8503 713.2228,404.8503 713.1881,404.8503L713.1379,404.8503C712.8999,404.8658 712.6593,404.8735 712.4174,404.8735C712.2424,404.8735 712.0713,404.8696 711.8976,404.8619C711.8616,404.8619 711.8269,404.8581 711.7921,404.8581C709.5947,404.7461 707.5452,404.0501 705.8083,402.9218C705.6128,402.7931 705.4262,402.6658 705.2397,402.5294C702.8402,400.7681 701.1111,398.1474 700.5077,395.1175C700.4138,394.6556 700.3482,394.1847 700.3096,393.7061L700.3096,393.6868C700.3019,393.6174 700.298,393.5505 700.2941,393.481C700.2864,393.3369 700.2787,393.1889 700.2748,393.0448C700.271,392.9406 700.271,392.8351 700.271,392.7309C700.271,389.0295 701.9268,385.7153 704.5359,383.4921C704.5398,383.4883 704.5437,383.4844 704.5475,383.4844C704.8434,383.2734 705.1393,383.0637 705.4417,382.8617C705.9627,382.5079 706.4877,382.1695 707.0293,381.8466C707.0319,381.8428 707.0409,381.8389 707.0486,381.835C708.9334,380.6913 710.9289,379.7161 713.017,378.9223C717.1378,377.3475 721.6099,376.4881 726.284,376.4881C727.3222,376.4881 728.3489,376.5318 729.364,376.6167L729.3679,376.6167C733.1349,376.9242 736.7399,377.7914 740.1029,379.1371C739.7376,383.8459 738.2014,388.228 735.7917,391.9873ZM347.4027,383.4855L339.1571,411.2398L330.9114,383.4855L321.448,383.4855L313.2023,411.2398L304.9567,383.4855L294.5081,383.4855L308.5482,424.3025L317.9341,424.3025L326.1797,396.5482L334.5107,424.3025L343.8966,424.3025L357.8513,383.4855L347.4027,383.4855ZM380.8817,382.5081C369.2075,382.5081 360.7214,391.2424 360.7214,403.5682C360.7214,416.2973 369.3704,425.2799 381.6962,425.2799C386.265,425.2799 390.9192,424.2172 395.5734,422.0995L395.5734,413.3575C391.3303,415.8087 387.1648,417.1972 383.4105,417.1972C376.5533,417.1972 371.6587,412.9541 370.9994,406.7485L398.6761,406.7485C398.839,405.3601 398.839,404.0569 398.839,402.9089C398.839,390.9166 391.5708,382.5081 380.8817,382.5081ZM863.2803,443.985L863.2803,431.9955C863.2803,431.6456 863.5633,431.3612 863.9133,431.3612L899.5884,431.3612C899.9383,431.3612 900.2226,431.6456 900.2226,431.9955L900.2226,443.985L911.5161,443.985L911.5161,413.1538C911.5161,396.7566 898.195,383.2593 881.8814,383.2593L881.6202,383.2593C865.3079,383.2593 851.9869,396.7566 851.9869,413.1538L851.9869,443.985L863.2803,443.985ZM863.2803,419.4348L863.2803,413.1538C863.2803,402.9475 871.504,394.5527 881.6202,394.5527L881.8814,394.5527C891.9976,394.5527 900.2226,402.9475 900.2226,413.1538L900.2226,419.4348C900.2226,419.7847 899.9383,420.0678 899.5884,420.0678L863.9133,420.0678C863.5633,420.0678 863.2803,419.7847 863.2803,419.4348ZM686.8461,369.0339C686.8461,365.1845 683.721,362.0594 679.8716,362.0594C676.0235,362.0594 672.8985,365.1845 672.8985,369.0339C672.8985,372.8833 676.0235,376.007 679.8716,376.007C683.721,376.007 686.8461,372.8833 686.8461,369.0339ZM872.1069,379.1595L872.1468,379.2264C880.678,374.5343 886.4996,374.5883 886.4996,374.5883L886.4958,374.5227C889.2928,374.0956 891.377,371.6228 891.2561,368.7293C891.2496,368.5981 891.2406,368.4695 891.2239,368.3421C890.9035,365.4306 888.3767,363.2254 885.4061,363.3502C885.0098,363.367 884.6277,363.421 884.2572,363.5149L884.1916,363.5316C875.0068,365.5708 869.3215,376.1747 869.3215,376.1747C869.2378,376.3033 869.1697,376.4423 869.1156,376.5877L869.0873,376.6713C869.014,376.9003 868.9792,377.1447 868.9895,377.3995C868.9998,377.6465 869.0539,377.8832 869.1414,378.0994C869.1529,378.129 869.1632,378.156 869.1761,378.183C869.3575,378.5831 869.6624,378.9151 870.0368,379.1325C870.37,379.328 870.7586,379.4323 871.1741,379.4168L871.1831,379.4168C871.5176,379.4027 871.8316,379.3113 872.1069,379.1595ZM270.6632,382.5081C258.3374,382.5081 249.6031,391.32 249.6031,403.894C249.6031,416.3827 258.3374,425.2799 270.6632,425.2799C282.989,425.2799 291.6458,416.3827 291.6458,403.894C291.6458,391.32 282.989,382.5081 270.6632,382.5081ZM570.446,382.5081C566.9399,382.5081 563.3407,383.8112 560.0827,386.2624L560.0827,365.6057L549.6341,365.6057L549.6341,424.3025L560.0827,424.3025L560.0827,421.4402C563.3407,423.9767 566.9399,425.2799 570.446,425.2799C581.3833,425.2799 588.892,416.4602 588.892,403.894C588.892,391.32 581.3833,382.5081 570.446,382.5081ZM1044.2788,443.985L1044.2788,431.9955C1044.2788,431.6456 1044.5619,431.3612 1044.9118,431.3612L1080.5869,431.3612C1080.9368,431.3612 1081.2212,431.6456 1081.2212,431.9955L1081.2212,443.985L1092.5146,443.985L1092.5146,413.1538C1092.5146,396.7566 1079.1935,383.2593 1062.8799,383.2593L1062.6188,383.2593C1046.3065,383.2593 1032.9854,396.7566 1032.9854,413.1538L1032.9854,443.985L1044.2788,443.985ZM1044.2788,419.4348L1044.2788,413.1538C1044.2788,402.9475 1052.5025,394.5527 1062.6188,394.5527L1062.8799,394.5527C1072.9975,394.5527 1081.2212,402.9475 1081.2212,413.1538L1081.2212,419.4348C1081.2212,419.7847 1080.9368,420.0678 1080.5869,420.0678L1044.9118,420.0678C1044.5619,420.0678 1044.2788,419.7847 1044.2788,419.4348ZM929.6184,443.9846L929.6184,412.9797C929.6184,402.8622 937.8408,394.5523 947.9583,394.5523L948.2195,394.5523C958.3383,394.5523 966.5607,402.8622 966.5607,412.9797L966.5607,443.9846L977.8542,443.9846L977.8542,412.9797C977.8542,402.8635 986.074,394.5523 996.2816,394.5523L996.4553,394.5523C1006.5728,394.5523 1014.8827,402.8635 1014.8827,412.9797L1014.8827,443.9846L1026.1761,443.9846L1026.1761,412.9797C1026.1761,396.6674 1012.7676,383.1727 996.4553,383.1727L996.2816,383.1727C986.8009,383.1727 978.1745,387.7863 972.7092,394.8752C972.5883,395.0309 972.403,395.1223 972.2074,395.1223C972.0106,395.1223 971.8253,395.0309 971.7057,394.8752C966.2391,387.7863 957.6153,383.1727 948.2195,383.1727L947.9583,383.1727C931.646,383.1727 918.3249,396.6674 918.3249,412.9797L918.3249,443.9846L929.6184,443.9846Z" style="fill:rgb(22,40,54);"/></g><g transform="matrix(1,0,0,1,-45.912012,-200)"><path d="M568.2431,416.2973C565.3885,416.2973 562.5262,415.0718 560.0827,412.6283L560.0827,395.1597C562.5262,392.7085 565.3885,391.4829 568.2431,391.4829C574.1228,391.4829 578.203,396.5482 578.203,403.894C578.203,411.2398 574.1228,416.2973 568.2431,416.2973Z" style="fill:rgb(22,40,54);"/></g><g transform="matrix(1,0,0,1,-45.912012,-200)"><path d="M499.2605,416.2973C493.2954,416.2973 489.2153,411.2398 489.2153,403.894C489.2153,396.5482 493.2954,391.4829 499.2605,391.4829C502.1151,391.4829 504.9696,392.7085 507.3355,395.1597L507.3355,412.6283C504.9696,415.0718 502.1151,416.2973 499.2605,416.2973Z" style="fill:rgb(22,40,54);"/></g><g transform="matrix(1,0,0,1,-45.912012,-200)"><path d="M454.6037,390.5831C459.2502,390.5831 462.6012,394.4228 462.927,399.9767L445.1325,399.9767C445.6212,394.3452 449.5385,390.5831 454.6037,390.5831Z" style="fill:rgb(22,40,54);"/></g><g transform="matrix(1,0,0,1,-45.912012,-200)"><path d="M380.4706,390.5831C385.1248,390.5831 388.4758,394.4228 388.8016,399.9767L370.9994,399.9767C371.4958,394.3452 375.4131,390.5831 380.4706,390.5831Z" style="fill:rgb(22,40,54);"/></g><g transform="matrix(1,0,0,1,-45.912012,-200)"><path d="M270.6632,416.5456C264.543,416.5456 260.2999,411.4027 260.2999,403.894C260.2999,396.3853 264.543,391.2424 270.6632,391.2424C276.7059,391.2424 280.9489,396.3853 280.9489,403.894C280.9489,411.4027 276.7059,416.5456 270.6632,416.5456Z" style="fill:rgb(22,40,54);"/></g><g transform="matrix(1,0,0,1,-45.912012,-200)"><path d="M223.3148,395.6484L215.395,395.6484L215.395,376.6283L223.3148,376.6283C229.3575,376.6283 233.6005,380.468 233.6005,386.1771C233.6005,391.8087 229.3575,395.6484 223.3148,395.6484Z" style="fill:rgb(22,40,54);"/></g><g transform="matrix(1.396761,0,0,1.409516,-252.965075,-71.721048)"><circle cx="634.9873" cy="170.8064" r="5.2007" style="fill:rgb(32,201,90);"/></g></g></svg>