<?xml version="1.0" encoding="UTF-8" standalone="no"?><!DOCTYPE svg PUBLIC "-//W3C//DTD SVG 1.1//EN" "http://www.w3.org/Graphics/SVG/1.1/DTD/svg11.dtd"><svg width="100%" height="100%" viewBox="0 0 267 267" version="1.1" xmlns="http://www.w3.org/2000/svg" xmlns:xlink="http://www.w3.org/1999/xlink" xml:space="preserve" xmlns:serif="http://www.serif.com/" style="fill-rule:evenodd;clip-rule:evenodd;stroke-linejoin:round;stroke-miterlimit:2;"><g transform="matrix(4.166667,0,0,4.166667,0,0)"><g><g transform="matrix(1.717521,-0,0,0.515679,-34.274664,23.088625)"><circle cx="39.0413" cy="40.9407" r="20.3408" style="fill:url(#_Radial1);"/></g><g transform="matrix(0.985374,0,0,1.042105,0.921358,-0.028819)"><path d="M58.1776,0.6844C60.8391,0.6845 62.9966,2.7245 62.9966,5.2411L62.9966,36.5258C62.9966,39.0424 60.8391,41.0825 58.1776,41.0825L4.819,41.0825C2.1575,41.0825 0,39.0424 -0,36.5258L0,5.2411C0,2.7245 2.1575,0.6845 4.819,0.6844L58.1776,0.6844Z" style="fill:white;"/><path d="M58.1776,0.6844C60.8391,0.6845 62.9966,2.7245 62.9966,5.2411L62.9966,36.5258C62.9966,39.0424 60.8391,41.0825 58.1776,41.0825L4.819,41.0825C2.1575,41.0825 0,39.0424 -0,36.5258L0,5.2411C0,2.7245 2.1575,0.6845 4.819,0.6844L58.1776,0.6844Z" style="fill:white;"/></g></g><g transform="matrix(0.852809,0,0,0.852809,31.958989,21.733943)"><g transform="matrix(1,0,0,1,-27.5,-11)"><clipPath id="_clip2"><rect x="0" y="0" width="55" height="22"/></clipPath><g clip-path="url(#_clip2)"><g transform="matrix(1,0,0,1,-1036,-188.94)"><g><g transform="matrix(1,0,0,1,1061.87,203.955)"><path d="M0,-11.824L0,-6.335L3.387,-6.335C4.897,-6.307 6.145,-7.51 6.172,-9.021C6.185,-9.73 5.922,-10.416 5.438,-10.935L5.386,-10.988C4.869,-11.54 4.141,-11.844 3.386,-11.822L0,-11.822L0,-11.824ZM0,-4.405L0,1.963L-2.021,1.963L-2.021,-13.76L3.337,-13.76C4.628,-13.787 5.877,-13.297 6.806,-12.399C8.644,-10.689 8.747,-7.813 7.037,-5.975C6.963,-5.895 6.886,-5.818 6.806,-5.744C5.874,-4.852 4.625,-4.37 3.337,-4.405L0,-4.405Z" style="fill:rgb(95,99,104);fill-rule:nonzero;"/></g><g transform="matrix(1,0,0,1,1072.16,198.388)"><path d="M0,4.236C-0.003,4.757 0.246,5.248 0.67,5.553C1.116,5.904 1.671,6.09 2.238,6.08C3.091,6.079 3.908,5.74 4.511,5.137C5.147,4.576 5.512,3.768 5.511,2.92C4.744,2.376 3.814,2.111 2.876,2.167C2.146,2.14 1.427,2.349 0.823,2.761C0.315,3.08 0.003,3.636 -0.005,4.236L0,4.236ZM2.612,-3.58C3.901,-3.65 5.168,-3.221 6.147,-2.38C7.035,-1.526 7.507,-0.328 7.441,0.902L7.441,7.528L5.51,7.528L5.51,6.035L5.422,6.035C4.712,7.195 3.444,7.895 2.085,7.879C0.996,7.914 -0.066,7.537 -0.891,6.825C-1.667,6.173 -2.107,5.205 -2.091,4.191C-2.126,3.153 -1.655,2.163 -0.828,1.535C0.151,0.835 1.339,0.486 2.542,0.546C3.569,0.507 4.59,0.734 5.505,1.205L5.505,0.743C5.51,0.052 5.203,-0.604 4.671,-1.045C4.137,-1.527 3.44,-1.79 2.721,-1.781C1.64,-1.806 0.624,-1.265 0.043,-0.354L-1.73,-1.472C-0.746,-2.88 0.897,-3.678 2.612,-3.58" style="fill:rgb(95,99,104);fill-rule:nonzero;"/></g><g transform="matrix(1,0,0,1,1090.7,210.66)"><path d="M0,-15.5L-6.744,0L-8.829,0L-6.329,-5.423L-10.765,-15.499L-8.564,-15.499L-5.359,-7.771L-5.315,-7.771L-2.199,-15.499L0,-15.5Z" style="fill:rgb(95,99,104);fill-rule:nonzero;"/></g><g transform="matrix(1,0,0,1,1053.71,202.989)"><path d="M0,-4.81C0.001,-5.425 -0.051,-6.04 -0.155,-6.646L-8.671,-6.646L-8.671,-3.167L-3.792,-3.167C-3.993,-2.045 -4.644,-1.054 -5.593,-0.422L-5.593,1.836L-2.681,1.836C-0.888,0.099 0.086,-2.316 0,-4.81" style="fill:rgb(66,133,244);fill-rule:nonzero;"/></g><g transform="matrix(1,0,0,1,1045.03,199.764)"><path d="M0,7.241C2.201,7.303 4.342,6.524 5.987,5.061L3.075,2.803C0.527,4.434 -2.861,3.691 -4.493,1.142C-4.733,0.766 -4.928,0.362 -5.07,-0.062L-8.07,-0.062L-8.07,2.265C-6.537,5.316 -3.414,7.241 0,7.241" style="fill:rgb(52,168,83);fill-rule:nonzero;"/></g><g transform="matrix(1,0,0,1,1039.96,196.245)"><path d="M0,3.456C-0.378,2.334 -0.378,1.12 0,-0.001L0,-2.328L-3,-2.328C-4.282,0.224 -4.282,3.232 -3,5.784L0,3.456Z" style="fill:rgb(251,188,4);fill-rule:nonzero;"/></g><g transform="matrix(1,0,0,1,1045.03,192.643)"><path d="M0,-0.128C1.289,-0.149 2.533,0.337 3.466,1.227L6.043,-1.351C4.408,-2.886 2.243,-3.729 0,-3.703C-3.414,-3.703 -6.537,-1.777 -8.07,1.274L-5.07,3.601C-4.354,1.399 -2.314,-0.101 0,-0.128" style="fill:rgb(234,67,53);fill-rule:nonzero;"/></g></g></g></g></g></g></g><defs><radialGradient id="_Radial1" cx="0" cy="0" r="1" gradientUnits="userSpaceOnUse" gradientTransform="matrix(17.149017,0,0,17.149017,38.474314,40.94072)"><stop offset="0" style="stop-color:rgb(163,163,163);stop-opacity:1"/><stop offset="0.44" style="stop-color:rgb(185,185,185);stop-opacity:0.7"/><stop offset="1" style="stop-color:rgb(235,235,235);stop-opacity:0"/></radialGradient></defs></svg>