<?xml version="1.0" encoding="UTF-8" standalone="no"?><!DOCTYPE svg PUBLIC "-//W3C//DTD SVG 1.1//EN" "http://www.w3.org/Graphics/SVG/1.1/DTD/svg11.dtd"><svg width="100%" height="100%" viewBox="0 0 267 267" version="1.1" xmlns="http://www.w3.org/2000/svg" xmlns:xlink="http://www.w3.org/1999/xlink" xml:space="preserve" xmlns:serif="http://www.serif.com/" style="fill-rule:evenodd;clip-rule:evenodd;stroke-linejoin:round;stroke-miterlimit:2;"><g transform="matrix(4.166667,0,0,4.166667,0,0)"><g><g transform="matrix(1.717521,-0,0,0.515679,-34.274664,23.088625)"><circle cx="39.0413" cy="40.9407" r="20.3408" style="fill:url(#_Radial1);"/></g><g transform="matrix(0.985374,0,0,1.042105,0.921358,-0.028819)"><path d="M58.1776,0.6844C60.8391,0.6845 62.9966,2.7245 62.9966,5.2411L62.9966,36.5258C62.9966,39.0424 60.8391,41.0825 58.1776,41.0825L4.819,41.0825C2.1575,41.0825 0,39.0424 -0,36.5258L0,5.2411C0,2.7245 2.1575,0.6845 4.819,0.6844L58.1776,0.6844Z" style="fill:white;"/><path d="M58.1776,0.6844C60.8391,0.6845 62.9966,2.7245 62.9966,5.2411L62.9966,36.5258C62.9966,39.0424 60.8391,41.0825 58.1776,41.0825L4.819,41.0825C2.1575,41.0825 0,39.0424 -0,36.5258L0,5.2411C0,2.7245 2.1575,0.6845 4.819,0.6844L58.1776,0.6844Z" style="fill:white;"/></g></g></g><defs><radialGradient id="_Radial1" cx="0" cy="0" r="1" gradientUnits="userSpaceOnUse" gradientTransform="matrix(17.149017,0,0,17.149017,38.474314,40.94072)"><stop offset="0" style="stop-color:rgb(163,163,163);stop-opacity:1"/><stop offset="0.44" style="stop-color:rgb(185,185,185);stop-opacity:0.7"/><stop offset="1" style="stop-color:rgb(235,235,235);stop-opacity:0"/></radialGradient></defs></svg>