<?xml version="1.0" encoding="UTF-8" standalone="no"?>
<!DOCTYPE svg PUBLIC "-//W3C//DTD SVG 1.1//EN" "http://www.w3.org/Graphics/SVG/1.1/DTD/svg11.dtd">
<svg width="100%" height="100%" viewBox="0 0 800 400" version="1.1" xmlns="http://www.w3.org/2000/svg" xmlns:xlink="http://www.w3.org/1999/xlink" xml:space="preserve" xmlns:serif="http://www.serif.com/" style="fill-rule:evenodd;clip-rule:evenodd;stroke-linejoin:round;stroke-miterlimit:2;">
    <g id="Capa-1" serif:id="Capa 1" transform="matrix(0.788714,0,0,0.788714,-25.905379,22.240901)">
        <g transform="matrix(0.931004,0,0,0.931004,37.258132,-257.255275)">
            <g>
                <g transform="matrix(1,0,0,1,341.8518,333.0731)">
                    <path d="M0,94.173L-247.161,94.173C-262.04,94.173 -274.102,82.111 -274.102,67.232L-274.102,11.561C-274.102,5.176 -268.926,0 -262.541,0L-32.73,0C-0.478,0 25.667,26.145 25.667,58.397L25.667,68.506C25.667,82.682 14.175,94.173 0,94.173" style="fill:rgb(81,203,245);fill-rule:nonzero;"/>
                </g>
                <g>
                    <g transform="matrix(1,0,0,1,106.2784,384.0396)">
                        <path d="M0,-7.566L3.742,-7.566C8.564,-7.566 11.89,-10.061 11.89,-14.467C11.89,-19.373 8.98,-22.033 4.157,-22.033L0,-22.033L0,-7.566ZM5.238,-32.842C24.528,-32.842 28.187,-24.527 28.187,-15.049C28.187,-4.074 18.209,1.413 6.319,1.413L0,1.413L0,14.301L5.072,14.301L5.072,25.276L-21.701,25.276L-21.701,14.301L-17.044,14.301L-17.044,-21.95L-21.701,-21.95L-21.701,-32.842L5.238,-32.842Z" style="fill:white;fill-rule:nonzero;"/>
                    </g>
                    <g transform="matrix(1,0,0,1,169.3062,392.9366)">
                        <path d="M0,-8.481C-0.083,-11.641 -0.832,-15.133 -6.153,-15.133C-11.225,-15.133 -12.389,-10.56 -12.555,-8.481L0,-8.481ZM14.384,10.643C8.231,15.964 1.58,17.876 -7.067,17.876C-17.377,17.876 -29.018,11.308 -29.018,-4.656C-29.018,-18.292 -19.207,-26.357 -6.652,-26.357C3.243,-26.357 10.809,-21.285 13.22,-14.301C14.218,-11.391 15.132,-4.989 13.386,-0.25L-12.805,-0.25C-12.306,1.995 -11.225,6.568 -4.241,6.568C-1.414,6.568 2.91,6.319 7.4,2.577L14.384,10.643Z" style="fill:white;fill-rule:nonzero;"/>
                    </g>
                    <g transform="matrix(1,0,0,1,194.8341,398.2572)">
                        <path d="M0,-30.514L0,-38.163L15.299,-43.069L15.299,-30.514L23.198,-30.514L23.198,-19.705L15.299,-19.705L15.299,-4.905C15.299,-2.078 14.717,1.747 17.959,1.747C19.041,1.747 21.618,0.998 23.198,0.333L23.198,10.976C20.703,11.973 15.049,12.555 13.137,12.555C0.666,12.555 0.25,5.737 0,-4.905L0,-19.705L-4.49,-19.705L-4.49,-30.514L0,-30.514Z" style="fill:white;fill-rule:nonzero;"/>
                    </g>
                    <g transform="matrix(1,0,0,1,278.0655,409.3163)">
                        <path d="M0,-58.119L0,-47.143L-5.155,-47.143L-5.155,-11.058L0,-11.058L0,0L-27.604,0L-27.604,-11.058L-22.366,-11.058L-22.366,-47.143L-27.604,-47.143L-27.604,-58.119L0,-58.119Z" style="fill:white;fill-rule:nonzero;"/>
                    </g>
                    <g transform="matrix(1,0,0,1,311.7408,362.2548)">
                        <path d="M0,36.003C8.813,35.836 12.472,27.605 12.472,17.212C12.472,8.316 8.813,-0.082 0,-0.082L-3.16,-0.082L-3.16,36.003L0,36.003ZM-25.359,36.003L-20.205,36.003L-20.205,-0.082L-25.359,-0.082L-25.359,-11.058L0,-11.058C20.121,-11.058 31.595,1.331 31.595,17.212C31.595,36.169 20.121,47.061 -0.333,47.061L-25.359,47.061L-25.359,36.003Z" style="fill:white;fill-rule:nonzero;"/>
                    </g>
                </g>
            </g>
            <g transform="matrix(1,0,0,1,702.42,593.6514)">
                <path d="M0,32.334C-2.704,18.364 8.112,7.999 21.857,11.717C34.588,15.097 40.559,26.025 36.504,38.643C33.799,47.206 28.73,54.191 21.632,60.613C10.366,53.515 2.366,45.178 0,32.334M129,110.072C139.703,110.185 150.407,108.833 161.11,107.706C178.01,105.904 194.233,100.947 209.555,93.51C233.327,82.019 253.043,65.457 268.478,43.939C292.589,10.252 299.574,-26.702 289.546,-66.81C288.307,-71.767 285.716,-75.373 280.759,-76.612C275.576,-77.851 271.858,-75.373 268.366,-70.19C268.704,-67.373 268.817,-63.655 269.717,-60.163C273.548,-46.531 274.224,-32.561 272.196,-18.928C267.69,13.069 251.466,38.756 226.568,58.81C200.317,79.879 169.221,87.765 136.324,89.342C124.494,89.905 112.664,88.553 100.834,86.976C82.357,84.497 64.219,79.991 46.756,73.344C44.841,72.668 43.038,71.429 40.784,70.189C42.474,68.161 43.601,66.809 44.728,65.57C55.431,53.74 60.388,40.108 58.698,23.997C57.233,10.703 51.15,0.112 40.897,-7.887C33.462,-13.858 24.561,-16.675 14.984,-15.999C0,-14.872 -10.252,-6.76 -16.448,6.647C-24.673,24.223 -21.744,49.459 -6.76,64.331C-5.069,65.908 -3.605,67.823 -2.028,69.626C-6.647,72.668 -8.337,73.682 -24.11,72.105C-57.458,68.837 -86.413,54.867 -111.65,33.01C-122.127,31.771 -124.718,33.461 -127.423,44.276C-126.071,46.304 -124.718,49.121 -122.466,51.149C-112.664,59.937 -102.186,67.936 -90.469,74.133C-73.232,83.371 -55.092,89.117 -35.376,90.919C-23.885,91.934 -12.618,91.483 -1.465,89.342C5.408,87.877 12.168,85.962 19.153,84.16C32.673,90.807 46.869,95.989 61.515,100.045C83.597,106.242 106.017,109.96 129,110.072" style="fill:rgb(81,203,245);fill-rule:nonzero;"/>
            </g>
            <g>
                <g transform="matrix(1,0,0,1,792.6639,472.65)">
                    <path d="M0,5.07C-4.169,0.45 -5.52,-5.408 -6.196,-11.379C-7.211,-19.491 -5.633,-27.49 -2.365,-35.038C0,-40.559 3.944,-44.615 10.816,-45.404C16.787,-44.502 20.167,-40.559 22.082,-35.377C26.138,-24.448 26.251,-13.407 21.519,-2.704C20.055,0.789 17.463,4.169 14.534,6.535C9.351,10.816 4.507,9.914 0,5.07M24.786,79.428C41.46,72.893 54.98,62.528 62.979,45.967C67.824,36.165 69.739,25.575 69.739,14.646C69.852,-4.732 69.739,-24.11 69.739,-43.488L69.739,-51.037C74.359,-51.938 78.414,-52.614 82.245,-53.403C83.597,-59.374 83.597,-77.175 82.02,-82.92C64.782,-80.667 47.432,-78.302 30.307,-76.161C28.392,-73.57 26.814,-71.541 25.688,-70.077C19.829,-71.429 14.534,-73.682 9.239,-73.682C-10.365,-74.02 -26.927,-66.472 -39.432,-51.375C-53.515,-34.362 -56.67,-14.309 -52.952,6.985C-49.91,24.786 -38.418,38.644 -18.477,40.784C-3.493,42.362 10.478,39.545 21.632,28.279C22.42,27.49 23.547,26.927 24.673,26.025C25.575,40.784 19.04,50.36 5.52,54.079C-4.619,57.008 -14.984,56.67 -25.011,53.854C-29.856,52.501 -34.475,50.473 -39.545,48.558C-43.488,57.458 -47.319,66.246 -51.149,75.147C-50.023,76.048 -49.234,76.837 -48.333,77.4C-35.714,85.287 -21.744,87.99 -7.211,87.089C3.718,86.3 14.421,83.596 24.786,79.428" style="fill:white;fill-rule:nonzero;"/>
                </g>
                <g transform="matrix(1,0,0,1,127.1581,615.5068)">
                    <path d="M0,-97.453C6.197,-97.453 12.055,-97.904 17.914,-97.341C22.871,-96.777 26.814,-93.736 28.73,-88.778C33.123,-77.061 29.518,-65.118 15.773,-61.401C11.042,-60.049 5.859,-59.936 0,-59.148L0,-97.453ZM12.731,27.941L12.731,-1.464L-0.225,-1.464C-0.45,-12.843 -0.45,-23.545 -0.338,-34.812C4.169,-35.037 7.887,-35.376 11.492,-35.488C21.294,-35.713 30.87,-36.953 39.883,-40.896C46.193,-43.6 52.727,-46.754 58.135,-51.148C74.359,-64.218 77.513,-81.568 73.007,-101.058C70.303,-112.55 63.317,-119.986 52.389,-124.042C45.291,-126.633 37.968,-128.211 30.419,-128.098C20.392,-127.872 10.253,-127.309 0.226,-126.972C-17.576,-126.408 -35.376,-125.957 -53.177,-125.507C-55.092,-125.394 -56.895,-125.169 -59.261,-124.943C-59.261,-115.141 -59.712,-105.791 -59.036,-96.439C-54.529,-96.101 -50.924,-95.876 -47.431,-95.651C-46.192,-87.426 -46.417,-4.956 -47.769,0.001C-51.262,0.226 -54.98,0.564 -58.36,0.79C-59.825,7.324 -59.712,25.013 -58.247,30.42C-34.7,30.758 -11.154,29.857 12.731,27.941" style="fill:white;fill-rule:nonzero;"/>
                </g>
                <g transform="matrix(1,0,0,1,651.5371,457.2696)">
                    <path d="M0,53.352C5.35,52.462 9.853,51.713 14.265,50.979C15.896,55.916 16.231,70.929 14.946,80.183C-7.196,85.101 -29.615,90.081 -51.996,95.052C-53.592,90.151 -53.867,73.339 -52.523,65.756C-50.033,64.984 -47.374,64.16 -44.432,63.247L-44.432,11.946C-47.276,12.148 -49.792,12.327 -52.806,12.542L-52.806,-16.285C-37.515,-20.232 -21.961,-23.549 -5.911,-26.912C-4.184,-23.035 -2.6,-19.479 -0.761,-15.353C1.153,-17.763 2.847,-19.924 4.571,-22.061C15.704,-35.861 30.233,-41.7 47.698,-39.712C57.203,-38.63 64.131,-33.16 67.243,-24.111C69.288,-18.165 70.742,-11.787 71.073,-5.529C71.711,6.542 71.369,18.664 71.429,30.766C71.439,32.927 71.43,35.089 71.43,38.077C74.989,37.792 77.905,37.558 81.321,37.284L81.321,66.594C62.942,70.323 44.551,74.054 25.138,77.993L25.138,70.152C25.138,52.328 25.161,34.504 25.119,16.68C25.111,13.385 25.176,10.033 24.62,6.809C23.545,0.567 19.269,-1.872 13.043,-0.505C8.655,0.459 5.281,2.786 3.311,6.686C1.846,9.585 0.24,12.812 0.148,15.935C-0.213,28.205 0,40.491 0,53.352" style="fill:white;fill-rule:nonzero;"/>
                </g>
                <g transform="matrix(1,0,0,1,262.9186,595.5668)">
                    <path d="M0,-56.896C10.252,-58.811 15.547,-54.192 15.435,-42.475C5.069,-40.897 -5.408,-39.208 -16.788,-37.517C-14.083,-50.249 -9.802,-54.98 0,-56.896M50.248,7.323C51.825,5.858 53.177,4.168 54.867,2.253C48.333,-4.057 42.249,-10.027 36.052,-16.112C34.137,-14.421 32.672,-13.182 31.095,-11.943C22.307,-4.733 12.167,-0.902 0.901,-0.001C-9.014,0.788 -16.224,-5.296 -16.336,-14.647C6.421,-18.252 29.292,-21.97 52.388,-25.801C55.543,-37.067 55.656,-47.319 53.515,-57.572C50.699,-71.993 41.685,-81.118 27.715,-85.625C17.012,-89.118 6.084,-89.118 -4.845,-86.977C-26.364,-82.583 -43.714,-71.993 -54.304,-52.164C-62.303,-37.18 -63.655,-21.181 -59.825,-4.845C-54.53,18.026 -37.405,31.883 -13.971,31.996C10.59,32.222 32.109,23.772 50.248,7.323" style="fill:white;fill-rule:nonzero;"/>
                </g>
                <g transform="matrix(1,0,0,1,498.6514,516.5828)">
                    <path d="M0,17.154C6.172,22.856 12.434,28.641 19.144,34.839C11.856,43.63 4.008,51.138 -5.262,57.161C-18.416,65.707 -32.739,71.346 -48.404,72.137C-71.809,73.319 -92.627,63.126 -96.555,33.97C-98.965,16.081 -96.172,-1.24 -85.531,-16.447C-73.826,-33.175 -57.59,-42.904 -37.494,-46.05C-31.511,-46.987 -25.662,-45.753 -20.243,-42.907C-18.524,-42.005 -16.842,-41.035 -14.72,-39.862C-13.367,-43.314 -12.115,-46.509 -10.627,-50.306C-2.391,-52.177 6.047,-54.095 15.156,-56.165L15.156,-5.581C4.576,-2.657 -6.003,-0.383 -16.875,1.753C-17.793,-2.5 -18.297,-5.976 -19.307,-9.297C-22.086,-18.433 -28.405,-20.821 -36.594,-15.795C-38.797,-14.442 -40.988,-12.697 -42.484,-10.625C-49.529,-0.866 -52.084,10.038 -49.342,21.837C-46.927,32.231 -38.307,37.439 -27.849,35.128C-20.616,33.529 -14.238,30.261 -8.877,25.035C-6.213,22.439 -3.316,20.082 0,17.154" style="fill:white;fill-rule:nonzero;"/>
                </g>
                <g transform="matrix(1,0,0,1,972.2595,459.0993)">
                    <path d="M0,-42.958C-1.545,-46.346 -3.791,-46.802 -6.366,-46.794C-10.985,-46.781 -15.611,-46.753 -20.224,-46.953C-26.226,-47.212 -30.875,-44.965 -34.408,-40.128C-35.686,-38.377 -37.258,-36.841 -38.692,-35.21C-48.756,-34.717 -58.562,-34.236 -68.823,-33.733C-70.737,-22.555 -70.602,-12.523 -63.313,-3.894C-59.889,0.16 -55.138,1.721 -49.818,2.038C-40.732,2.579 -31.877,4.492 -24.029,9.231C-20.15,11.573 -16.396,14.583 -13.542,18.073C-6.342,26.878 -10.198,37.035 -21.43,38.638C-38.663,41.098 -54.121,36.602 -67.433,25.224C-88.957,6.825 -91.493,-24.163 -77.701,-47.574C-63.983,-70.86 -43.451,-84.056 -16.223,-82.339C28.709,-79.506 47.321,-40.545 37.385,-6.679C35.751,-1.11 33.121,3.932 28.995,8.075C20.429,16.676 8.776,15.595 1.917,5.473C-1.872,-0.117 -3.585,-6.446 -3.98,-13.168C-4.488,-21.821 -3.286,-30.269 -1.11,-38.613C-0.726,-40.086 -0.356,-41.562 0,-42.958" style="fill:white;fill-rule:nonzero;"/>
                </g>
                <g transform="matrix(1,0,0,1,398.442,498.7398)">
                    <path d="M0,70.395L0,98.777C-3.028,100.223 -6.205,102.245 -9.676,103.294C-17.427,105.638 -25.23,108.012 -33.18,109.446C-50.406,112.554 -60.28,104.792 -61.435,87.157C-62.296,74.022 -62.377,60.834 -62.704,47.667C-62.844,41.993 -62.727,36.313 -62.727,29.9C-66.715,30.31 -70.065,30.654 -73.359,30.992C-74.894,26.23 -75.217,11.892 -73.996,2.257C-70.678,1.43 -67.139,0.548 -62.947,-0.497L-62.947,-20.314C-48.929,-27.57 -35.383,-34.582 -20.745,-42.159L-20.745,-8.659C-13.584,-9.998 -7.248,-11.183 -0.96,-12.359C0.695,-7.852 1.077,5.941 -0.159,16.107C-6.061,19.216 -13.066,19.043 -20.044,21.295C-20.241,22.671 -20.677,24.327 -20.684,25.984C-20.738,40.055 -20.737,54.126 -20.698,68.196C-20.689,71.714 -20.982,75.498 -15.205,76.758C-11.009,75.002 -6.01,72.91 0,70.395" style="fill:white;fill-rule:nonzero;"/>
                </g>
                <g transform="matrix(1,0,0,1,533.2859,530.3575)">
                    <path d="M0,-44.687C-2.757,-44.227 -5.123,-43.832 -7.463,-43.442C-8.994,-47.956 -9.271,-64.751 -7.967,-71.923C-1.154,-74.857 38.054,-83.667 43.878,-83.315L43.878,-3.387C47.659,-3.784 50.578,-4.09 53.987,-4.448L53.987,24.766C33.562,29.507 13.131,34.249 -7.253,38.98C-8.969,34.493 -9.377,19.428 -8.093,9.805C-5.642,8.972 -2.999,8.074 -0.432,7.202C0.769,2.319 1.107,-34.631 0,-44.687" style="fill:white;fill-rule:nonzero;"/>
                </g>
                <g transform="matrix(1,0,0,1,553.0786,417.3496)">
                    <path d="M0,-24.002C1.816,-27.063 3.11,-29.856 4.951,-32.223C9.173,-37.649 14.542,-41.152 21.755,-41.079C30.706,-40.988 37.289,-33.831 35.686,-25.046C34.964,-21.086 33.301,-16.885 30.853,-13.736C24.8,-5.95 18.269,1.502 11.464,8.644C8.856,11.381 5.16,13.308 1.64,14.896C-3.359,17.15 -8.229,15.949 -12.657,12.848C-18.227,8.945 -23.802,5.05 -29.386,1.167C-33.321,-1.568 -34.963,-5.515 -35.188,-10.106C-35.676,-20.065 -26.614,-31.314 -16.729,-32.802C-9.32,-33.917 -3.403,-31.52 0,-24.002" style="fill:white;fill-rule:nonzero;"/>
                </g>
            </g>
        </g>
        <g transform="matrix(1.093517,0,0,1.093517,913.343527,139.575807)">
            <path d="M0,5.954C-1.042,1.067 -0.532,-0.671 2.245,-1.695C5.07,-2.737 6.963,-1.749 9.352,2.016C7.158,8.168 5.915,8.691 0,5.954" style="fill:white;fill-rule:nonzero;"/>
        </g>
    </g>
</svg>
