<?xml version="1.0" encoding="UTF-8" standalone="no"?><!DOCTYPE svg PUBLIC "-//W3C//DTD SVG 1.1//EN" "http://www.w3.org/Graphics/SVG/1.1/DTD/svg11.dtd"><svg width="100%" height="100%" viewBox="0 0 800 400" version="1.1" xmlns="http://www.w3.org/2000/svg" xmlns:xlink="http://www.w3.org/1999/xlink" xml:space="preserve" xmlns:serif="http://www.serif.com/" style="fill-rule:evenodd;clip-rule:evenodd;stroke-linejoin:round;stroke-miterlimit:2;"><g id="Capa-1" serif:id="Capa 1"><g><g><path d="M254.501,133.065l-181.489,0c-10.926,0 -19.783,-8.857 -19.783,-19.783l0,-40.879c0,-4.688 3.801,-8.489 8.489,-8.489l168.749,0c23.682,0 42.881,19.198 42.881,42.881l0,7.423c0,10.409 -8.439,18.847 -18.847,18.847" style="fill:#51cbf5;fill-rule:nonzero;"/><g><path d="M81.52,95.783l2.748,0c3.541,0 5.983,-1.832 5.983,-5.067c0,-3.602 -2.137,-5.556 -5.678,-5.556l-3.052,0l0,10.623Zm3.846,-18.56c14.165,0 16.851,6.106 16.851,13.065c0,8.059 -7.327,12.088 -16.058,12.088l-4.64,0l0,9.464l3.724,0l0,8.059l-19.659,0l0,-8.059l3.42,0l0,-26.619l-3.42,0l0,-7.998l19.781,0Z" style="fill:#fff;fill-rule:nonzero;"/><path d="M127.801,101.644c-0.061,-2.32 -0.611,-4.885 -4.518,-4.885c-3.724,0 -4.579,3.358 -4.701,4.885l9.219,0Zm10.562,14.043c-4.518,3.907 -9.402,5.311 -15.751,5.311c-7.571,0 -16.119,-4.823 -16.119,-16.545c0,-10.013 7.204,-15.935 16.423,-15.935c7.266,0 12.822,3.724 14.592,8.853c0.733,2.137 1.404,6.838 0.122,10.318l-19.232,0c0.366,1.648 1.16,5.006 6.289,5.006c2.076,0 5.251,-0.183 8.548,-2.931l5.128,5.923Z" style="fill:#fff;fill-rule:nonzero;"/><path d="M146.546,89.372l0,-5.617l11.234,-3.602l0,9.219l5.8,0l0,7.937l-5.8,0l0,10.868c0,2.076 -0.427,4.885 1.953,4.885c0.795,0 2.687,-0.55 3.847,-1.038l0,7.815c-1.832,0.732 -5.984,1.159 -7.388,1.159c-9.157,0 -9.463,-5.006 -9.646,-12.821l0,-10.868l-3.297,0l0,-7.937l3.297,0Z" style="fill:#fff;fill-rule:nonzero;"/><path d="M207.663,77.223l0,8.06l-3.785,0l0,26.497l3.785,0l0,8.12l-20.269,0l0,-8.12l3.846,0l0,-26.497l-3.846,0l0,-8.06l20.269,0Z" style="fill:#fff;fill-rule:nonzero;"/><path d="M232.39,111.779c6.471,-0.123 9.158,-6.167 9.158,-13.798c0,-6.532 -2.687,-12.699 -9.158,-12.699l-2.32,0l0,26.497l2.32,0Zm-18.621,0l3.785,0l0,-26.497l-3.785,0l0,-8.06l18.621,0c14.775,0 23.2,9.097 23.2,20.759c0,13.92 -8.425,21.918 -23.445,21.918l-18.376,0l0,-8.12Z" style="fill:#fff;fill-rule:nonzero;"/></g></g><path d="M519.264,278.998c-1.986,-10.258 5.957,-17.869 16.049,-15.139c9.348,2.482 13.733,10.506 10.755,19.772c-1.986,6.288 -5.708,11.417 -10.92,16.132c-8.273,-5.212 -14.147,-11.334 -15.884,-20.765m94.724,57.083c7.859,0.083 15.719,-0.91 23.578,-1.737c12.41,-1.323 24.322,-4.963 35.573,-10.424c17.456,-8.438 31.933,-20.599 43.267,-36.4c17.705,-24.736 22.834,-51.871 15.47,-81.322c-0.91,-3.64 -2.812,-6.288 -6.452,-7.198c-3.806,-0.91 -6.536,0.91 -9.1,4.716c0.248,2.069 0.331,4.799 0.992,7.363c2.813,10.01 3.309,20.268 1.82,30.279c-3.309,23.495 -15.222,42.357 -33.504,57.083c-19.276,15.471 -42.11,21.262 -66.266,22.42c-8.687,0.413 -17.373,-0.579 -26.06,-1.737c-13.568,-1.82 -26.886,-5.129 -39.709,-10.01c-1.406,-0.496 -2.73,-1.406 -4.385,-2.317c1.241,-1.489 2.069,-2.482 2.896,-3.392c7.859,-8.687 11.499,-18.697 10.258,-30.527c-1.076,-9.762 -5.542,-17.539 -13.071,-23.412c-5.459,-4.384 -11.995,-6.453 -19.028,-5.957c-11.003,0.828 -18.531,6.784 -23.08,16.629c-6.04,12.906 -3.889,31.437 7.114,42.357c1.242,1.158 2.317,2.564 3.475,3.888c-3.392,2.234 -4.633,2.978 -16.215,1.82c-24.487,-2.4 -45.749,-12.658 -64.28,-28.707c-7.693,-0.91 -9.596,0.331 -11.582,8.273c0.993,1.489 1.986,3.558 3.64,5.047c7.198,6.453 14.892,12.327 23.495,16.877c12.657,6.783 25.977,11.003 40.455,12.326c8.438,0.745 16.711,0.414 24.901,-1.158c5.047,-1.076 10.011,-2.482 15.14,-3.805c9.928,4.881 20.352,8.686 31.106,11.664c16.215,4.55 32.678,7.281 49.554,7.363" style="fill:#51cbf5;fill-rule:nonzero;"/><g><path d="M585.53,170.128c-3.061,-3.392 -4.053,-7.694 -4.55,-12.078c-0.745,-5.957 0.413,-11.83 2.813,-17.373c1.737,-4.054 4.633,-7.032 9.679,-7.612c4.384,0.662 6.866,3.558 8.273,7.363c2.978,8.025 3.061,16.132 -0.413,23.992c-1.075,2.565 -2.978,5.047 -5.129,6.784c-3.806,3.144 -7.363,2.481 -10.672,-1.076m18.2,54.601c12.244,-4.799 22.171,-12.41 28.045,-24.57c3.558,-7.198 4.964,-14.974 4.964,-22.999c0.083,-14.229 0,-28.458 0,-42.688l0,-5.543c3.392,-0.662 6.37,-1.158 9.183,-1.737c0.993,-4.384 0.993,-17.456 -0.165,-21.674c-12.658,1.654 -25.398,3.391 -37.973,4.963c-1.406,1.903 -2.565,3.392 -3.392,4.467c-4.302,-0.993 -8.19,-2.647 -12.078,-2.647c-14.395,-0.248 -26.557,5.294 -35.739,16.38c-10.341,12.493 -12.658,27.217 -9.928,42.853c2.234,13.071 10.672,23.247 25.315,24.818c11.003,1.159 21.262,-0.91 29.452,-9.182c0.579,-0.579 1.406,-0.993 2.233,-1.655c0.662,10.837 -4.136,17.869 -14.064,20.6c-7.445,2.151 -15.056,1.903 -22.419,-0.165c-3.558,-0.994 -6.949,-2.483 -10.672,-3.889c-2.895,6.535 -5.708,12.988 -8.521,19.524c0.827,0.662 1.406,1.241 2.068,1.654c9.266,5.791 19.524,7.776 30.196,7.115c8.025,-0.579 15.884,-2.565 23.495,-5.625" style="fill:#4552cc;fill-rule:nonzero;"/><path d="M96.852,199.745c4.55,0 8.852,-0.331 13.154,0.082c3.64,0.414 6.535,2.647 7.942,6.288c3.226,8.604 0.579,17.373 -9.514,20.103c-3.474,0.993 -7.28,1.076 -11.582,1.654l0,-28.127Zm9.348,92.076l0,-21.592l-9.514,0c-0.165,-8.356 -0.165,-16.214 -0.083,-24.487c3.309,-0.165 6.04,-0.414 8.687,-0.496c7.198,-0.165 14.229,-1.076 20.847,-3.971c4.633,-1.986 9.431,-4.302 13.402,-7.528c11.913,-9.597 14.229,-22.337 10.92,-36.649c-1.986,-8.439 -7.115,-13.899 -15.14,-16.877c-5.212,-1.903 -10.589,-3.061 -16.132,-2.978c-7.363,0.166 -14.808,0.579 -22.171,0.827c-13.072,0.414 -26.142,0.745 -39.214,1.076c-1.406,0.083 -2.73,0.248 -4.467,0.414c0,7.198 -0.331,14.063 0.165,20.93c3.309,0.248 5.957,0.413 8.521,0.579c0.91,6.04 0.745,66.597 -0.248,70.237c-2.565,0.165 -5.295,0.413 -7.777,0.579c-1.076,4.798 -0.993,17.787 0.083,21.757c17.29,0.248 34.58,-0.413 52.119,-1.82" style="fill:#4552cc;fill-rule:nonzero;"/><path d="M481.901,194.287c3.928,-0.654 7.235,-1.204 10.475,-1.742c1.198,3.625 1.444,14.649 0.5,21.444c-16.259,3.611 -32.721,7.268 -49.155,10.918c-1.172,-3.599 -1.374,-15.944 -0.387,-21.512c1.828,-0.567 3.781,-1.172 5.941,-1.842l0,-37.67c-2.088,0.148 -3.936,0.28 -6.149,0.438l0,-21.168c11.228,-2.898 22.649,-5.334 34.435,-7.803c1.268,2.847 2.431,5.458 3.782,8.488c1.405,-1.77 2.649,-3.356 3.915,-4.926c8.175,-10.133 18.843,-14.421 31.668,-12.961c6.979,0.795 12.067,4.811 14.352,11.456c1.502,4.366 2.569,9.049 2.812,13.645c0.468,8.864 0.217,17.765 0.261,26.651c0.007,1.587 0.001,3.174 0.001,5.368c2.613,-0.209 4.755,-0.381 7.263,-0.582l0,21.522c-13.496,2.738 -27,5.478 -41.255,8.37l0,-5.758c0,-13.088 0.017,-26.176 -0.014,-39.264c-0.006,-2.42 0.042,-4.881 -0.366,-7.248c-0.789,-4.583 -3.929,-6.374 -8.501,-5.371c-3.222,0.708 -5.7,2.417 -7.146,5.28c-1.076,2.129 -2.255,4.498 -2.323,6.791c-0.265,9.01 -0.109,18.031 -0.109,27.475" style="fill:#4552cc;fill-rule:nonzero;"/><path d="M196.541,214.884c7.528,-1.406 11.416,1.986 11.334,10.589c-7.612,1.159 -15.305,2.399 -23.661,3.641c1.986,-9.349 5.13,-12.823 12.327,-14.23m36.897,47.156c1.158,-1.076 2.151,-2.317 3.392,-3.723c-4.798,-4.633 -9.265,-9.017 -13.816,-13.485c-1.406,1.242 -2.482,2.151 -3.64,3.061c-6.453,5.294 -13.899,8.107 -22.171,8.769c-7.281,0.579 -12.575,-3.888 -12.657,-10.754c16.71,-2.647 33.504,-5.377 50.464,-8.19c2.317,-8.273 2.4,-15.801 0.828,-23.329c-2.068,-10.589 -8.687,-17.29 -18.945,-20.599c-7.859,-2.565 -15.884,-2.565 -23.909,-0.993c-15.801,3.226 -28.541,11.003 -36.318,25.563c-5.874,11.003 -6.866,22.751 -4.054,34.746c3.888,16.794 16.463,26.969 33.67,27.052c18.035,0.166 33.836,-6.039 47.156,-18.117" style="fill:#4552cc;fill-rule:nonzero;"/><path d="M369.638,211.261c4.532,4.187 9.13,8.435 14.057,12.986c-5.352,6.455 -11.114,11.968 -17.921,16.391c-9.659,6.275 -20.176,10.416 -31.679,10.997c-17.186,0.868 -32.473,-6.617 -35.357,-28.026c-1.77,-13.136 0.281,-25.855 8.095,-37.021c8.595,-12.283 20.517,-19.427 35.273,-21.737c4.393,-0.688 8.688,0.218 12.667,2.308c1.262,0.662 2.497,1.375 4.056,2.236c0.994,-2.535 1.913,-4.881 3.005,-7.669c6.048,-1.374 12.244,-2.782 18.932,-4.302l0,37.144c-7.769,2.147 -15.537,3.817 -23.52,5.385c-0.674,-3.123 -1.044,-5.675 -1.786,-8.114c-2.041,-6.709 -6.681,-8.462 -12.694,-4.771c-1.618,0.994 -3.226,2.275 -4.325,3.796c-5.173,7.166 -7.049,15.173 -5.036,23.837c1.773,7.632 8.103,11.456 15.782,9.76c5.311,-1.174 9.994,-3.574 13.931,-7.411c1.956,-1.906 4.083,-3.637 6.518,-5.787" style="fill:#4552cc;fill-rule:nonzero;"/><path d="M717.406,124.911c-1.134,-2.488 -2.784,-2.823 -4.675,-2.817c-3.392,0.01 -6.789,0.03 -10.176,-0.117c-4.407,-0.19 -7.821,1.46 -10.415,5.012c-0.938,1.286 -2.093,2.414 -3.146,3.611c-7.39,0.362 -14.59,0.715 -22.125,1.085c-1.405,8.208 -1.306,15.574 4.046,21.911c2.514,2.977 6.003,4.123 9.909,4.356c6.672,0.397 13.174,1.802 18.937,5.282c2.848,1.72 5.605,3.93 7.701,6.493c5.287,6.465 2.455,13.924 -5.792,15.101c-12.654,1.806 -24.005,-1.495 -33.78,-9.85c-15.805,-13.51 -17.667,-36.265 -7.54,-53.455c10.073,-17.099 25.15,-26.789 45.143,-25.528c32.993,2.08 46.66,30.689 39.364,55.557c-1.2,4.089 -3.131,7.792 -6.161,10.834c-6.29,6.316 -14.847,5.522 -19.883,-1.911c-2.782,-4.105 -4.04,-8.752 -4.33,-13.688c-0.373,-6.354 0.51,-12.557 2.107,-18.684c0.282,-1.082 0.554,-2.165 0.815,-3.191" style="fill:#4552cc;fill-rule:nonzero;"/><path d="M296.055,237.253l0,20.841c-2.223,1.062 -4.556,2.547 -7.105,3.317c-5.692,1.721 -11.421,3.464 -17.259,4.517c-12.649,2.282 -19.899,-3.417 -20.748,-16.367c-0.632,-9.645 -0.692,-19.329 -0.932,-28.997c-0.103,-4.166 -0.017,-8.337 -0.017,-13.046c-2.928,0.301 -5.388,0.554 -7.807,0.802c-1.127,-3.497 -1.364,-14.025 -0.468,-21.1c2.436,-0.607 5.035,-1.255 8.113,-2.022l0,-14.552c10.293,-5.328 20.24,-10.477 30.989,-16.041l0,24.599c5.258,-0.983 9.911,-1.853 14.528,-2.717c1.215,3.309 1.496,13.438 0.588,20.902c-4.334,2.283 -9.478,2.156 -14.601,3.81c-0.145,1.01 -0.465,2.226 -0.47,3.443c-0.04,10.332 -0.039,20.665 -0.01,30.996c0.007,2.583 -0.209,5.362 4.033,6.287c3.081,-1.289 6.752,-2.826 11.165,-4.672" style="fill:#4552cc;fill-rule:nonzero;"/><path d="M395.07,175.966c-2.024,0.338 -3.762,0.628 -5.48,0.914c-1.124,-3.315 -1.328,-15.647 -0.37,-20.913c5.003,-2.154 33.793,-8.624 38.07,-8.365l0,58.691c2.776,-0.292 4.92,-0.516 7.423,-0.779l0,21.452c-14.998,3.481 -30,6.963 -44.968,10.437c-1.26,-3.295 -1.56,-14.357 -0.617,-21.423c1.8,-0.612 3.741,-1.271 5.625,-1.911c0.882,-3.586 1.13,-30.718 0.317,-38.102" style="fill:#4552cc;fill-rule:nonzero;"/><path d="M409.604,108.173c1.333,-2.248 2.284,-4.299 3.635,-6.037c3.1,-3.984 7.043,-6.557 12.339,-6.503c6.573,0.067 11.407,5.322 10.229,11.773c-0.53,2.908 -1.751,5.993 -3.549,8.305c-4.445,5.717 -9.24,11.189 -14.237,16.434c-1.915,2.01 -4.629,3.425 -7.214,4.591c-3.671,1.655 -7.247,0.773 -10.498,-1.504c-4.09,-2.866 -8.184,-5.726 -12.284,-8.577c-2.889,-2.008 -4.095,-4.907 -4.26,-8.278c-0.358,-7.313 6.296,-15.573 13.554,-16.666c5.44,-0.819 9.785,0.941 12.284,6.462" style="fill:#4552cc;fill-rule:nonzero;"/></g></g><path d="M694.461,137.459c-0.898,-4.213 -0.459,-5.712 1.936,-6.595c2.436,-0.898 4.068,-0.047 6.127,3.199c-1.892,5.304 -2.963,5.755 -8.063,3.395" style="fill:#4552cc;fill-rule:nonzero;"/></g></svg>