<?xml version="1.0" encoding="UTF-8" standalone="no"?>
<!DOCTYPE svg PUBLIC "-//W3C//DTD SVG 1.1//EN" "http://www.w3.org/Graphics/SVG/1.1/DTD/svg11.dtd">
<svg width="100%" height="100%" viewBox="0 0 512 512" version="1.1" xmlns="http://www.w3.org/2000/svg" xmlns:xlink="http://www.w3.org/1999/xlink" xml:space="preserve" xmlns:serif="http://www.serif.com/" style="fill-rule:evenodd;clip-rule:evenodd;stroke-linejoin:round;stroke-miterlimit:2;">
    <g transform="matrix(1.103567,0,0,1.103567,-120.685557,-120.686108)">
        <path d="M460.573,387.422C459.162,385.11 455.438,383.724 449.874,380.953C444.289,378.19 416.826,364.771 411.716,362.935C406.607,361.094 402.854,360.163 399.156,365.702C395.432,371.24 384.729,383.724 381.465,387.422C378.213,391.129 374.965,391.579 369.38,388.808C363.782,386.045 345.789,380.171 324.472,361.324C307.887,346.621 296.678,328.5 293.405,322.957C290.166,317.423 293.086,314.427 295.849,311.664C298.369,309.169 301.438,305.194 304.231,301.968C307.028,298.72 307.959,296.404 309.821,292.706C311.682,289.004 310.751,285.782 309.34,283.014C307.959,280.247 296.784,252.984 292.125,241.881C287.496,230.813 282.838,231.225 279.565,231.225C276.317,231.225 270.29,232.19 270.29,232.19C270.29,232.19 259.102,233.576 253.989,239.118C248.879,244.653 234.457,258.068 234.457,285.31C234.457,312.565 254.448,338.919 257.236,342.591C260.033,346.298 295.849,404.059 352.616,426.239C409.374,448.414 409.374,441.014 419.614,440.079C429.837,439.178 452.641,426.69 457.296,413.751C461.959,400.812 461.959,389.718 460.573,387.422M345.564,145.354C239.949,145.354 154.065,230.579 154.065,335.369C154.065,376.923 167.603,415.438 190.536,446.778L166.626,517.33L240.2,493.951C270.43,513.785 306.65,525.368 345.564,525.368C451.132,525.368 537.041,440.13 537.041,335.369C537.041,230.579 451.132,145.354 345.564,145.354M573.312,335.369C573.312,460.167 471.344,561.362 345.564,561.362C305.617,561.362 268.088,551.16 235.465,533.24L109.357,573.31L150.461,452.066C129.722,418.006 117.791,378.058 117.791,335.369C117.791,210.546 219.759,109.36 345.564,109.36C471.344,109.36 573.312,210.546 573.312,335.369" style="fill:rgb(0,178,37);"/>
    </g>
</svg>
